<svg width="1440" height="838" viewBox="0 0 1440 838" fill="none" xmlns="http://www.w3.org/2000/svg">
<path d="M1440 423.423H0V433.691H1440V423.423Z" fill="#BCBCBC"/>
<path d="M16.6905 303.826H10.6504V563.558H16.6905V303.826Z" fill="#BCBCBC"/>
<path d="M8.45607 411.947H2.41602V455.437H8.45607V411.947Z" fill="#BCBCBC"/>
<path d="M24.9244 347.316H18.8838V515.235H24.9244V347.316Z" fill="#BCBCBC"/>
<path d="M33.1577 358.188H27.1177V498.927H33.1577V358.188Z" fill="#BCBCBC"/>
<path d="M41.3916 250.671H35.3516V764.094H41.3916V250.671Z" fill="#BCBCBC"/>
<path d="M49.6251 195.706H43.5845V768.323H49.6251V195.706Z" fill="#BCBCBC"/>
<path d="M57.8594 287.517H51.8193V563.557H57.8594V287.517Z" fill="#BCBCBC"/>
<path d="M66.0933 283.289H60.0532V536.98H66.0933V283.289Z" fill="#BCBCBC"/>
<path d="M74.3277 225.906H68.2871V798.524H74.3277V225.906Z" fill="#BCBCBC"/>
<path d="M82.5611 317.718H76.521V593.758H82.5611V317.718Z" fill="#BCBCBC"/>
<path d="M90.7949 244.631H84.7549V610.067H90.7949V244.631Z" fill="#BCBCBC"/>
<path d="M99.0284 245.235H92.9878V610.671H99.0284V245.235Z" fill="#BCBCBC"/>
<path d="M107.262 301.41H101.222V610.672H107.262V301.41Z" fill="#BCBCBC"/>
<path d="M115.496 345.504H109.456V561.745H115.496V345.504Z" fill="#BCBCBC"/>
<path d="M123.73 375.705H117.69V485.034H123.73V375.705Z" fill="#BCBCBC"/>
<path d="M131.964 383.557H125.923V485.034H131.964V383.557Z" fill="#BCBCBC"/>
<path d="M140.198 410.134H134.158V453.624H140.198V410.134Z" fill="#BCBCBC"/>
<path d="M148.431 393.826H142.391V463.289H148.431V393.826Z" fill="#BCBCBC"/>
<path d="M156.665 385.974H150.625V464.497H156.665V385.974Z" fill="#BCBCBC"/>
<path d="M164.899 405.302H158.859V448.792H164.899V405.302Z" fill="#BCBCBC"/>
<path d="M202.835 298.389H196.794V558.121H202.835V298.389Z" fill="#BCBCBC"/>
<path d="M209.965 341.879H203.924V509.799H209.965V341.879Z" fill="#BCBCBC"/>
<path d="M217.094 245.235H211.054V758.658H217.094V245.235Z" fill="#BCBCBC"/>
<path d="M224.224 190.268H218.184V762.886H224.224V190.268Z" fill="#BCBCBC"/>
<path d="M231.354 282.081H225.314V558.121H231.354V282.081Z" fill="#BCBCBC"/>
<path d="M238.484 277.853H232.444V531.544H238.484V277.853Z" fill="#BCBCBC"/>
<path d="M245.613 355.772H239.573V503.758H245.613V355.772Z" fill="#BCBCBC"/>
<path d="M195.704 408.322H189.664V451.812H195.704V408.322Z" fill="#BCBCBC"/>
<path d="M252.745 366.645H246.704V491.074H252.745V366.645Z" fill="#BCBCBC"/>
<path d="M259.874 356.98H253.833V469.934H259.874V356.98Z" fill="#BCBCBC"/>
<path d="M267.004 302.013H260.963V604.026H267.004V302.013Z" fill="#BCBCBC"/>
<path d="M274.133 210.806H268.093V637.249H274.133V210.806Z" fill="#BCBCBC"/>
<path d="M281.263 314.094H275.223V637.248H281.263V314.094Z" fill="#BCBCBC"/>
<path d="M288.393 307.45H282.353V584.094H288.393V307.45Z" fill="#BCBCBC"/>
<path d="M295.523 340.672H289.483V540.605H295.523V340.672Z" fill="#BCBCBC"/>
<path d="M302.652 376.914H296.612V476.578H302.652V376.914Z" fill="#BCBCBC"/>
<path d="M309.783 356.98H303.742V496.511H309.783V356.98Z" fill="#BCBCBC"/>
<path d="M316.913 350.94H310.873V512.215H316.913V350.94Z" fill="#BCBCBC"/>
<path d="M324.043 318.323H318.002V550.269H324.043V318.323Z" fill="#BCBCBC"/>
<path d="M331.172 254.296H325.132V614.9H331.172V254.296Z" fill="#BCBCBC"/>
<path d="M338.302 355.772H332.262V513.423H338.302V355.772Z" fill="#BCBCBC"/>
<path d="M345.432 382.954H339.392V471.142H345.432V382.954Z" fill="#BCBCBC"/>
<path d="M352.563 392.014H346.522V459.061H352.563V392.014Z" fill="#BCBCBC"/>
<path d="M359.691 401.074H353.651V446.98H359.691V401.074Z" fill="#BCBCBC"/>
<path d="M366.822 324.362H360.781V538.792H366.822V324.362Z" fill="#BCBCBC"/>
<path d="M373.952 372.081H367.912V508.591H373.952V372.081Z" fill="#BCBCBC"/>
<path d="M381.082 372.081H375.042V517.047H381.082V372.081Z" fill="#BCBCBC"/>
<path d="M388.211 377.517H382.171V487.45H388.211V377.517Z" fill="#BCBCBC"/>
<path d="M395.341 286.913H389.301V625.772H395.341V286.913Z" fill="#BCBCBC"/>
<path d="M402.471 394.43H396.431V514.027H402.471V394.43Z" fill="#BCBCBC"/>
<path d="M409.602 403.49H403.562V456.644H409.602V403.49Z" fill="#BCBCBC"/>
<path d="M416.732 259.128H410.691V609.464H416.732V259.128Z" fill="#BCBCBC"/>
<path d="M423.861 394.43H417.82V473.557H423.861V394.43Z" fill="#BCBCBC"/>
<path d="M430.991 394.43H424.951V484.43H430.991V394.43Z" fill="#BCBCBC"/>
<path d="M438.121 241.611H432.081V658.993H438.121V241.611Z" fill="#BCBCBC"/>
<path d="M445.251 226.51H439.21V620.94H445.251V226.51Z" fill="#BCBCBC"/>
<path d="M452.38 398.658H446.34V482.014H452.38V398.658Z" fill="#BCBCBC"/>
<path d="M459.51 344.9H453.47V517.048H459.51V344.9Z" fill="#BCBCBC"/>
<path d="M466.64 344.9H460.6V521.276H466.64V344.9Z" fill="#BCBCBC"/>
<path d="M473.771 371.477H467.73V486.846H473.771V371.477Z" fill="#BCBCBC"/>
<path d="M480.901 376.914H474.86V480.806H480.901V376.914Z" fill="#BCBCBC"/>
<path d="M488.031 350.336H481.99V533.96H488.031V350.336Z" fill="#BCBCBC"/>
<path d="M495.16 355.772H489.12V497.114H495.16V355.772Z" fill="#BCBCBC"/>
<path d="M502.29 355.168H496.25V496.51H502.29V355.168Z" fill="#BCBCBC"/>
<path d="M509.419 408.322H503.379V449.396H509.419V408.322Z" fill="#BCBCBC"/>
<path d="M516.549 355.772H510.509V497.114H516.549V355.772Z" fill="#BCBCBC"/>
<path d="M523.68 393.826H517.64V490.47H523.68V393.826Z" fill="#BCBCBC"/>
<path d="M530.81 407.718H524.77V448.792H530.81V407.718Z" fill="#BCBCBC"/>
<path d="M537.94 334.631H531.899V540.604H537.94V334.631Z" fill="#BCBCBC"/>
<path d="M545.069 269.396H539.029V609.463H545.069V269.396Z" fill="#BCBCBC"/>
<path d="M552.2 312.886H546.159V475.973H552.2V312.886Z" fill="#BCBCBC"/>
<path d="M559.329 414.966H553.288V456.04H559.329V414.966Z" fill="#BCBCBC"/>
<path d="M614.296 295.973H608.255V555.705H614.296V295.973Z" fill="#BCBCBC"/>
<path d="M621.544 275.437H615.503V649.933H621.544V275.437Z" fill="#BCBCBC"/>
<path d="M628.793 88.188H622.752V824.497H628.793V88.188Z" fill="#BCBCBC"/>
<path d="M636.041 256.108H630V712.752H636.041V256.108Z" fill="#BCBCBC"/>
<path d="M643.289 371.477H637.249V523.691H643.289V371.477Z" fill="#BCBCBC"/>
<path d="M650.537 305.638H644.497V588.926H650.537V305.638Z" fill="#BCBCBC"/>
<path d="M658.39 376.914H652.349V489.867H658.39V376.914Z" fill="#BCBCBC"/>
<path d="M607.047 394.43H601.007V464.497H607.047V394.43Z" fill="#BCBCBC"/>
<path d="M665.638 344.295H659.597V512.819H665.638V344.295Z" fill="#BCBCBC"/>
<path d="M672.886 327.987H666.846V541.208H672.886V327.987Z" fill="#BCBCBC"/>
<path d="M680.134 198.725H674.094V669.262H680.134V198.725Z" fill="#BCBCBC"/>
<path d="M687.382 190.873H681.342V686.175H687.382V190.873Z" fill="#BCBCBC"/>
<path d="M694.631 350.336H688.591V521.879H694.631V350.336Z" fill="#BCBCBC"/>
<path d="M701.879 375.705H695.839V491.678H701.879V375.705Z" fill="#BCBCBC"/>
<path d="M709.128 405.302H703.088V446.376H709.128V405.302Z" fill="#BCBCBC"/>
<path d="M716.376 369.665H710.335V485.638H716.376V369.665Z" fill="#BCBCBC"/>
<path d="M723.624 378.725H717.584V490.47H723.624V378.725Z" fill="#BCBCBC"/>
<path d="M745.37 372.081H739.329V497.114H745.37V372.081Z" fill="#BCBCBC"/>
<path d="M738.121 381.141H732.08V492.886H738.121V381.141Z" fill="#BCBCBC"/>
<path d="M730.872 394.43H724.832V459.664H730.872V394.43Z" fill="#BCBCBC"/>
<path d="M752.617 318.323H746.577V560.537H752.617V318.323Z" fill="#BCBCBC"/>
<path d="M760.47 372.685H754.43V488.054H760.47V372.685Z" fill="#BCBCBC"/>
<path d="M767.718 205.37H761.678V658.389H767.718V205.37Z" fill="#BCBCBC"/>
<path d="M774.967 308.054H768.926V536.98H774.967V308.054Z" fill="#BCBCBC"/>
<path d="M782.215 253.087H776.174V584.698H782.215V253.087Z" fill="#BCBCBC"/>
<path d="M789.464 280.269H783.423V611.275H789.464V280.269Z" fill="#BCBCBC"/>
<path d="M796.712 370.269H790.671V495.303H796.712V370.269Z" fill="#BCBCBC"/>
<path d="M803.96 365.437H797.92V490.47H803.96V365.437Z" fill="#BCBCBC"/>
<path d="M811.208 415.571H805.168V456.644H811.208V415.571Z" fill="#BCBCBC"/>
<path d="M818.457 344.9H812.416V569.598H818.457V344.9Z" fill="#BCBCBC"/>
<path d="M825.705 302.618H819.665V625.773H825.705V302.618Z" fill="#BCBCBC"/>
<path d="M832.953 350.94H826.913V448.188H832.953V350.94Z" fill="#BCBCBC"/>
<path d="M840.201 378.121H834.161V483.222H840.201V378.121Z" fill="#BCBCBC"/>
<path d="M847.449 399.262H841.409V465.101H847.449V399.262Z" fill="#BCBCBC"/>
<path d="M855.302 225.906H849.262V637.852H855.302V225.906Z" fill="#BCBCBC"/>
<path d="M862.55 152.215H856.51V691.007H862.55V152.215Z" fill="#BCBCBC"/>
<path d="M869.799 247.047H863.759V579.262H869.799V247.047Z" fill="#BCBCBC"/>
<path d="M877.047 409.531H871.007V458.458H877.047V409.531Z" fill="#BCBCBC"/>
<path d="M884.296 413.155H878.256V446.98H884.296V413.155Z" fill="#BCBCBC"/>
<path d="M891.544 392.014H885.504V471.745H891.544V392.014Z" fill="#BCBCBC"/>
<path d="M898.793 403.49H892.752V452.417H898.793V403.49Z" fill="#BCBCBC"/>
<path d="M967.047 361.812H961.007V490.47H967.047V361.812Z" fill="#BCBCBC"/>
<path d="M974.296 314.094H968.256V553.892H974.296V314.094Z" fill="#BCBCBC"/>
<path d="M981.543 228.926H975.503V617.316H981.543V228.926Z" fill="#BCBCBC"/>
<path d="M988.792 357.584H982.751V643.893H988.792V357.584Z" fill="#BCBCBC"/>
<path d="M996.04 366.645H990V526.712H996.04V366.645Z" fill="#BCBCBC"/>
<path d="M1003.29 292.953H997.248V558.725H1003.29V292.953Z" fill="#BCBCBC"/>
<path d="M1011.14 284.497H1005.1V615.504H1011.14V284.497Z" fill="#BCBCBC"/>
<path d="M959.799 389.598H953.758V459.665H959.799V389.598Z" fill="#BCBCBC"/>
<path d="M1018.39 308.658H1012.35V554.497H1018.39V308.658Z" fill="#BCBCBC"/>
<path d="M1025.64 367.853H1019.6V499.531H1025.64V367.853Z" fill="#BCBCBC"/>
<path d="M1032.89 149.799H1026.85V680.739H1032.89V149.799Z" fill="#BCBCBC"/>
<path d="M1040.13 169.128H1034.09V652.954H1040.13V169.128Z" fill="#BCBCBC"/>
<path d="M1047.38 283.893H1041.34V591.343H1047.38V283.893Z" fill="#BCBCBC"/>
<path d="M1054.63 270.604H1048.59V599.799H1054.63V270.604Z" fill="#BCBCBC"/>
<path d="M1061.88 400.47H1055.84V514.027H1061.88V400.47Z" fill="#BCBCBC"/>
<path d="M1069.13 255.504H1063.09V544.833H1069.13V255.504Z" fill="#BCBCBC"/>
<path d="M1076.38 288.121H1070.34V648.121H1076.38V288.121Z" fill="#BCBCBC"/>
<path d="M1098.12 396.242H1092.08V466.913H1098.12V396.242Z" fill="#BCBCBC"/>
<path d="M1090.87 372.081H1084.83V518.859H1090.87V372.081Z" fill="#BCBCBC"/>
<path d="M1083.62 266.376H1077.58V698.256H1083.62V266.376Z" fill="#BCBCBC"/>
<path d="M1105.37 372.081H1099.33V460.872H1105.37V372.081Z" fill="#BCBCBC"/>
<path d="M1113.22 340.067H1107.18V530.336H1113.22V340.067Z" fill="#BCBCBC"/>
<path d="M1120.47 372.081H1114.43V497.114H1120.47V372.081Z" fill="#BCBCBC"/>
<path d="M1127.72 338.255H1121.68V532.148H1127.72V338.255Z" fill="#BCBCBC"/>
<path d="M1134.97 367.249H1128.93V459.665H1134.97V367.249Z" fill="#BCBCBC"/>
<path d="M1142.22 285.101H1136.17V556.308H1142.22V285.101Z" fill="#BCBCBC"/>
<path d="M1149.46 382.349H1143.42V475.973H1149.46V382.349Z" fill="#BCBCBC"/>
<path d="M1156.71 368.457H1150.67V467.517H1156.71V368.457Z" fill="#BCBCBC"/>
<path d="M1163.96 410.739H1157.92V451.812H1163.96V410.739Z" fill="#BCBCBC"/>
<path d="M1171.21 191.477H1165.17V712.752H1171.21V191.477Z" fill="#BCBCBC"/>
<path d="M1178.46 297.785H1172.42V594.966H1178.46V297.785Z" fill="#BCBCBC"/>
<path d="M1185.71 367.853H1179.66V442.752H1185.71V367.853Z" fill="#BCBCBC"/>
<path d="M1192.95 393.222H1186.91V487.45H1192.95V393.222Z" fill="#BCBCBC"/>
<path d="M1200.2 367.249H1194.16V460.269H1200.2V367.249Z" fill="#BCBCBC"/>
<path d="M1208.05 414.966H1202.01V445.771H1208.05V414.966Z" fill="#BCBCBC"/>
<path d="M1215.3 417.987H1209.26V438.524H1215.3V417.987Z" fill="#BCBCBC"/>
<path d="M1222.55 417.987H1216.51V442.148H1222.55V417.987Z" fill="#BCBCBC"/>
<path d="M1229.8 404.698H1223.76V453.625H1229.8V404.698Z" fill="#BCBCBC"/>
<path d="M1237.05 408.322H1231.01V442.148H1237.05V408.322Z" fill="#BCBCBC"/>
<path d="M1244.3 424.631H1238.25V440.336H1244.3V424.631Z" fill="#BCBCBC"/>
<path d="M1251.54 417.383H1245.5V439.732H1251.54V417.383Z" fill="#BCBCBC"/>
<path d="M1265.44 416.779H1259.4V443.356H1265.44V416.779Z" fill="#BCBCBC"/>
<path d="M1270.27 138.927H1264.23V691.611H1270.27V138.927Z" fill="#BCBCBC"/>
<path d="M1278.73 0H1272.69V837.785H1278.73V0Z" fill="#BCBCBC"/>
<path d="M1285.97 378.121H1279.93V474.766H1285.97V378.121Z" fill="#BCBCBC"/>
<path d="M1293.22 378.121H1287.18V480.806H1293.22V378.121Z" fill="#BCBCBC"/>
<path d="M1300.47 346.711H1294.43V518.255H1300.47V346.711Z" fill="#BCBCBC"/>
<path d="M1308.32 372.685H1302.28V491.074H1308.32V372.685Z" fill="#BCBCBC"/>
<path d="M1317.99 414.966H1311.95V437.315H1317.99V414.966Z" fill="#BCBCBC"/>
<path d="M1331.28 344.9H1325.24V515.235H1331.28V344.9Z" fill="#BCBCBC"/>
<path d="M1338.52 368.457H1332.48V486.846H1338.52V368.457Z" fill="#BCBCBC"/>
<path d="M1346.98 410.739H1340.94V445.168H1346.98V410.739Z" fill="#BCBCBC"/>
<path d="M1354.83 285.101H1348.79V589.53H1354.83V285.101Z" fill="#BCBCBC"/>
<path d="M1363.29 278.457H1357.25V613.691H1363.29V278.457Z" fill="#BCBCBC"/>
<path d="M1371.75 355.772H1365.7V514.027H1371.75V355.772Z" fill="#BCBCBC"/>
<path d="M1378.39 233.759H1372.35V637.248H1378.39V233.759Z" fill="#BCBCBC"/>
<path d="M1386.85 354.564H1380.81V529.128H1386.85V354.564Z" fill="#BCBCBC"/>
<path d="M1394.7 360.604H1388.66V485.638H1394.7V360.604Z" fill="#BCBCBC"/>
<path d="M1402.55 382.349H1396.51V475.973H1402.55V382.349Z" fill="#BCBCBC"/>
<path d="M1410.4 412.55H1404.36V444.564H1410.4V412.55Z" fill="#BCBCBC"/>
</svg>
